<svg xmlns="http://www.w3.org/2000/svg" xmlns:xlink="http://www.w3.org/1999/xlink" width="500" zoomAndPan="magnify" viewBox="0 0 375 374.999991" height="500" preserveAspectRatio="xMidYMid meet" version="1.0"><defs><g/><clipPath id="bcd1fa695f"><path d="M 113 80 L 158 80 L 158 117 L 113 117 Z M 113 80 " clip-rule="nonzero"/></clipPath><clipPath id="6f2a3de892"><path d="M 149.214844 65.503906 L 170.191406 91.941406 L 121.421875 130.632812 L 100.445312 104.195312 Z M 149.214844 65.503906 " clip-rule="nonzero"/></clipPath><clipPath id="4b0690edc6"><path d="M 149.214844 65.503906 L 170.191406 91.941406 L 121.421875 130.632812 L 100.445312 104.195312 Z M 149.214844 65.503906 " clip-rule="nonzero"/></clipPath><clipPath id="fcdfb4b124"><path d="M 61 82 L 108 82 L 108 117 L 61 117 Z M 61 82 " clip-rule="nonzero"/></clipPath><clipPath id="626f64756f"><path d="M 49.429688 95.824219 L 68.640625 68.074219 L 119.824219 103.503906 L 100.617188 131.253906 Z M 49.429688 95.824219 " clip-rule="nonzero"/></clipPath><clipPath id="66c2bf492e"><path d="M 100.460938 131.148438 L 119.671875 103.394531 L 68.488281 67.964844 L 49.277344 95.71875 Z M 100.460938 131.148438 " clip-rule="nonzero"/></clipPath></defs><g fill="#000000" fill-opacity="1"><g transform="translate(66.640478, 195.918357)"><g><path d="M 8.234375 0 L 8.234375 -70.390625 L 32.515625 -70.390625 L 32.515625 -62.96875 L 32.796875 -62.96875 C 39.109375 -69.28125 45.828125 -72.4375 52.953125 -72.4375 C 56.429688 -72.4375 59.882812 -71.976562 63.3125 -71.0625 C 66.75 -70.15625 70.046875 -68.738281 73.203125 -66.8125 C 76.359375 -64.894531 78.914062 -62.175781 80.875 -58.65625 C 82.84375 -55.132812 83.828125 -51.039062 83.828125 -46.375 L 83.828125 0 L 59.546875 0 L 59.546875 -39.78125 C 59.546875 -43.445312 58.378906 -46.648438 56.046875 -49.390625 C 53.710938 -52.140625 50.671875 -53.515625 46.921875 -53.515625 C 43.265625 -53.515625 39.945312 -52.09375 36.96875 -49.25 C 34 -46.414062 32.515625 -43.257812 32.515625 -39.78125 L 32.515625 0 Z M 8.234375 0 "/></g></g></g><g fill="#000000" fill-opacity="1"><g transform="translate(149.778091, 195.918357)"><g><path d="M 13.03125 -8.703125 C 6.445312 -15.890625 3.15625 -24.695312 3.15625 -35.125 C 3.15625 -45.550781 6.445312 -54.375 13.03125 -61.59375 C 19.613281 -68.820312 27.984375 -72.4375 38.140625 -72.4375 C 47.472656 -72.4375 55.15625 -69.507812 61.1875 -63.65625 L 61.1875 -70.390625 L 85.484375 -70.390625 L 85.484375 0 L 61.46875 0 L 61.46875 -7.953125 L 61.1875 -7.953125 C 55.15625 -1.273438 47.472656 2.0625 38.140625 2.0625 C 27.984375 2.0625 19.613281 -1.523438 13.03125 -8.703125 Z M 33.6875 -47.046875 C 30.53125 -43.941406 28.953125 -39.96875 28.953125 -35.125 C 28.953125 -30.28125 30.457031 -26.320312 33.46875 -23.25 C 36.488281 -20.1875 40.472656 -18.65625 45.421875 -18.65625 C 50.171875 -18.65625 54.078125 -20.207031 57.140625 -23.3125 C 60.203125 -26.425781 61.734375 -30.363281 61.734375 -35.125 C 61.734375 -39.96875 60.15625 -43.941406 57 -47.046875 C 53.851562 -50.160156 49.992188 -51.71875 45.421875 -51.71875 C 40.753906 -51.71875 36.84375 -50.160156 33.6875 -47.046875 Z M 33.6875 -47.046875 "/></g></g></g><g fill="#000000" fill-opacity="1"><g transform="translate(235.933924, 195.918357)"><g><path d="M 12.34375 -70.390625 L 12.34375 -96.59375 L 36.640625 -96.59375 L 36.640625 -70.390625 L 51.453125 -70.390625 L 51.453125 -51.859375 L 36.640625 -51.859375 L 36.640625 -29.5 C 36.640625 -23 38.46875 -19.75 42.125 -19.75 C 43.039062 -19.75 44 -19.929688 45 -20.296875 C 46.007812 -20.671875 46.785156 -21.039062 47.328125 -21.40625 L 48.15625 -21.953125 L 54.1875 -2.328125 C 48.976562 0.597656 43.035156 2.0625 36.359375 2.0625 C 31.785156 2.0625 27.851562 1.257812 24.5625 -0.34375 C 21.269531 -1.945312 18.773438 -4.097656 17.078125 -6.796875 C 15.390625 -9.492188 14.175781 -12.328125 13.4375 -15.296875 C 12.707031 -18.265625 12.34375 -21.441406 12.34375 -24.828125 L 12.34375 -51.859375 L 2.1875 -51.859375 L 2.1875 -70.390625 Z M 12.34375 -70.390625 "/></g></g></g><g fill="#000000" fill-opacity="1"><g transform="translate(68.119193, 278.504221)"><g><path d="M 31.140625 -70.390625 L 31.140625 -36.90625 C 31.140625 -29.957031 32.191406 -25.019531 34.296875 -22.09375 C 36.398438 -19.164062 39.96875 -17.703125 45 -17.703125 C 50.03125 -17.703125 53.597656 -19.164062 55.703125 -22.09375 C 57.804688 -25.019531 58.859375 -29.957031 58.859375 -36.90625 L 58.859375 -70.390625 L 83.140625 -70.390625 L 83.140625 -31.015625 C 83.140625 -19.304688 80.097656 -10.863281 74.015625 -5.6875 C 67.929688 -0.519531 58.257812 2.0625 45 2.0625 C 31.738281 2.0625 22.066406 -0.519531 15.984375 -5.6875 C 9.898438 -10.863281 6.859375 -19.304688 6.859375 -31.015625 L 6.859375 -70.390625 Z M 31.140625 -70.390625 "/></g></g></g><g fill="#000000" fill-opacity="1"><g transform="translate(150.570859, 278.504221)"><g><path d="M 8.234375 0 L 8.234375 -70.390625 L 32.515625 -70.390625 L 32.515625 -60.234375 L 32.796875 -60.234375 C 32.972656 -60.597656 33.265625 -61.050781 33.671875 -61.59375 C 34.085938 -62.144531 34.984375 -63.109375 36.359375 -64.484375 C 37.734375 -65.859375 39.195312 -67.09375 40.75 -68.1875 C 42.300781 -69.289062 44.3125 -70.273438 46.78125 -71.140625 C 49.25 -72.003906 51.765625 -72.4375 54.328125 -72.4375 C 56.984375 -72.4375 59.59375 -72.070312 62.15625 -71.34375 C 64.71875 -70.613281 66.59375 -69.882812 67.78125 -69.15625 L 69.703125 -68.046875 L 59.546875 -47.46875 C 56.523438 -50.03125 52.316406 -51.3125 46.921875 -51.3125 C 43.992188 -51.3125 41.476562 -50.671875 39.375 -49.390625 C 37.269531 -48.109375 35.78125 -46.550781 34.90625 -44.71875 C 34.039062 -42.894531 33.425781 -41.34375 33.0625 -40.0625 C 32.695312 -38.78125 32.515625 -37.773438 32.515625 -37.046875 L 32.515625 0 Z M 8.234375 0 "/></g></g></g><g fill="#000000" fill-opacity="1"><g transform="translate(211.346273, 278.504221)"><g><path d="M 79.4375 -31.828125 L 28.40625 -31.828125 C 28.40625 -26.890625 30.003906 -23.226562 33.203125 -20.84375 C 36.398438 -18.46875 39.875 -17.28125 43.625 -17.28125 C 47.5625 -17.28125 50.671875 -17.804688 52.953125 -18.859375 C 55.242188 -19.910156 57.851562 -21.992188 60.78125 -25.109375 L 78.34375 -16.328125 C 71.019531 -4.066406 58.851562 2.0625 41.84375 2.0625 C 31.238281 2.0625 22.140625 -1.570312 14.546875 -8.84375 C 6.953125 -16.113281 3.15625 -24.867188 3.15625 -35.109375 C 3.15625 -45.359375 6.953125 -54.140625 14.546875 -61.453125 C 22.140625 -68.773438 31.238281 -72.4375 41.84375 -72.4375 C 53 -72.4375 62.078125 -69.210938 69.078125 -62.765625 C 76.078125 -56.316406 79.578125 -47.101562 79.578125 -35.125 C 79.578125 -33.476562 79.53125 -32.378906 79.4375 -31.828125 Z M 29.09375 -45.28125 L 55.84375 -45.28125 C 55.289062 -48.9375 53.847656 -51.75 51.515625 -53.71875 C 49.179688 -55.6875 46.1875 -56.671875 42.53125 -56.671875 C 38.507812 -56.671875 35.304688 -55.617188 32.921875 -53.515625 C 30.546875 -51.410156 29.269531 -48.664062 29.09375 -45.28125 Z M 29.09375 -45.28125 "/></g></g></g><path fill="#000000" d="M 123.960938 68.519531 C 123.960938 84.015625 109.828125 96.578125 109.828125 96.578125 C 109.828125 96.578125 95.367188 84.015625 95.367188 68.519531 C 95.367188 53.023438 109.828125 40.460938 109.828125 40.460938 C 109.828125 40.460938 123.960938 53.023438 123.960938 68.519531 " fill-opacity="1" fill-rule="nonzero"/><g clip-path="url(#bcd1fa695f)"><g clip-path="url(#6f2a3de892)"><g clip-path="url(#4b0690edc6)"><path fill="#000000" d="M 144.316406 109.242188 C 132.175781 118.871094 113.550781 115.605469 113.550781 115.605469 C 113.550781 115.605469 114.402344 96.46875 126.542969 86.839844 C 138.683594 77.207031 157.511719 80.726562 157.511719 80.726562 C 157.511719 80.726562 156.457031 99.609375 144.316406 109.242188 " fill-opacity="1" fill-rule="nonzero"/></g></g></g><g clip-path="url(#fcdfb4b124)"><g clip-path="url(#626f64756f)"><g clip-path="url(#66c2bf492e)"><path fill="#000000" d="M 92.722656 87.820312 C 79.980469 79 61.609375 83.472656 61.609375 83.472656 C 61.609375 83.472656 63.707031 102.511719 76.449219 111.332031 C 89.191406 120.152344 107.75 115.414062 107.75 115.414062 C 107.75 115.414062 105.464844 96.640625 92.722656 87.820312 " fill-opacity="1" fill-rule="nonzero"/></g></g></g><g fill="#000000" fill-opacity="1"><g transform="translate(65.266676, 334.609197)"><g><path d="M 37.78125 -30.125 C 37.78125 -27.550781 37.191406 -25.195312 36.015625 -23.0625 C 34.835938 -20.9375 33.023438 -19.21875 30.578125 -17.90625 C 28.128906 -16.601562 25.085938 -15.953125 21.453125 -15.953125 L 14.75 -15.953125 L 14.75 0 L 3.921875 0 L 3.921875 -44.4375 L 21.453125 -44.4375 C 25.003906 -44.4375 28 -43.820312 30.4375 -42.59375 C 32.882812 -41.375 34.71875 -39.6875 35.9375 -37.53125 C 37.164062 -35.382812 37.78125 -32.914062 37.78125 -30.125 Z M 20.640625 -24.5625 C 22.703125 -24.5625 24.238281 -25.046875 25.25 -26.015625 C 26.269531 -26.984375 26.78125 -28.351562 26.78125 -30.125 C 26.78125 -31.894531 26.269531 -33.265625 25.25 -34.234375 C 24.238281 -35.210938 22.703125 -35.703125 20.640625 -35.703125 L 14.75 -35.703125 L 14.75 -24.5625 Z M 20.640625 -24.5625 "/></g></g></g><g fill="#000000" fill-opacity="1"><g transform="translate(106.533991, 334.609197)"><g><path d="M 14.75 -8.359375 L 28.921875 -8.359375 L 28.921875 0 L 3.921875 0 L 3.921875 -44.4375 L 14.75 -44.4375 Z M 14.75 -8.359375 "/></g></g></g><g fill="#000000" fill-opacity="1"><g transform="translate(138.497236, 334.609197)"><g><path d="M 31.578125 -7.84375 L 15 -7.84375 L 12.34375 0 L 1.015625 0 L 17.09375 -44.4375 L 29.625 -44.4375 L 45.703125 0 L 34.25 0 Z M 28.796875 -16.203125 L 23.296875 -32.46875 L 17.84375 -16.203125 Z M 28.796875 -16.203125 "/></g></g></g><g fill="#000000" fill-opacity="1"><g transform="translate(186.916665, 334.609197)"><g><path d="M 43.671875 0 L 32.84375 0 L 14.75 -27.40625 L 14.75 0 L 3.921875 0 L 3.921875 -44.4375 L 14.75 -44.4375 L 32.84375 -16.90625 L 32.84375 -44.4375 L 43.671875 -44.4375 Z M 43.671875 0 "/></g></g></g><g fill="#000000" fill-opacity="1"><g transform="translate(236.285478, 334.609197)"><g><path d="M 14.75 -35.765625 L 14.75 -26.78125 L 29.25 -26.78125 L 29.25 -18.421875 L 14.75 -18.421875 L 14.75 -8.671875 L 31.140625 -8.671875 L 31.140625 0 L 3.921875 0 L 3.921875 -44.4375 L 31.140625 -44.4375 L 31.140625 -35.765625 Z M 14.75 -35.765625 "/></g></g></g><g fill="#000000" fill-opacity="1"><g transform="translate(272.299484, 334.609197)"><g><path d="M 35.890625 -44.4375 L 35.890625 -35.765625 L 24.109375 -35.765625 L 24.109375 0 L 13.296875 0 L 13.296875 -35.765625 L 1.515625 -35.765625 L 1.515625 -44.4375 Z M 35.890625 -44.4375 "/></g></g></g></svg>