<svg xmlns="http://www.w3.org/2000/svg" xmlns:xlink="http://www.w3.org/1999/xlink" width="321" zoomAndPan="magnify" viewBox="0 0 240.75 141.750002" height="189" preserveAspectRatio="xMidYMid meet" version="1.0"><defs><clipPath id="bf8bc0e6c9"><path d="M 83.511719 42.257812 L 154.636719 42.257812 L 154.636719 115.628906 L 83.511719 115.628906 Z M 83.511719 42.257812 " clip-rule="nonzero"/></clipPath><clipPath id="1795fe5366"><path d="M 172.382812 31.789062 L 235.269531 31.789062 L 235.269531 100.667969 L 172.382812 100.667969 Z M 172.382812 31.789062 " clip-rule="nonzero"/></clipPath><clipPath id="92a45e9589"><path d="M 5.191406 31.789062 L 68.082031 31.789062 L 68.082031 100.667969 L 5.191406 100.667969 Z M 5.191406 31.789062 " clip-rule="nonzero"/></clipPath></defs><g clip-path="url(#bf8bc0e6c9)"><path fill="#000000" d="M 124.867188 94.757812 C 125.40625 94.226562 125.917969 93.664062 126.429688 93.105469 C 126.683594 92.832031 126.929688 92.558594 127.1875 92.289062 C 127.484375 92.023438 127.636719 91.6875 127.636719 91.285156 C 127.589844 90.90625 127.410156 90.605469 127.097656 90.386719 C 126.339844 89.757812 125.5625 89.15625 124.785156 88.554688 L 124.632812 88.433594 C 123.875 87.921875 123.292969 87.253906 122.878906 86.4375 C 122.246094 84.867188 122.203125 83.285156 122.757812 81.683594 C 123.179688 80.433594 123.882812 79.375 124.875 78.503906 C 125.300781 78.09375 125.734375 77.691406 126.171875 77.289062 C 126.519531 76.960938 126.871094 76.636719 127.214844 76.308594 C 127.5 76.070312 127.644531 75.765625 127.648438 75.390625 C 127.628906 75.035156 127.476562 74.746094 127.191406 74.53125 L 126.746094 74.148438 C 126.175781 73.632812 125.574219 73.160156 124.941406 72.726562 C 122.945312 71.417969 120.753906 70.730469 118.367188 70.667969 C 118.253906 70.390625 118.113281 70.128906 117.945312 69.882812 C 117.625 69.453125 117.277344 69.046875 116.902344 68.667969 C 116.636719 68.390625 116.3125 68.273438 115.929688 68.320312 C 115.5625 68.378906 115.296875 68.574219 115.125 68.902344 C 114.988281 69.148438 114.949219 69.410156 115.015625 69.683594 C 115.082031 69.960938 115.230469 70.175781 115.464844 70.332031 C 115.632812 70.472656 115.78125 70.628906 115.914062 70.800781 C 114.5 71 113.15625 71.417969 111.882812 72.054688 C 110.605469 72.695312 109.464844 73.519531 108.457031 74.535156 C 108.171875 74.785156 108.027344 75.101562 108.019531 75.484375 C 108.050781 75.851562 108.214844 76.144531 108.507812 76.363281 C 109.308594 77.03125 110.105469 77.683594 110.914062 78.335938 C 112.070312 79.21875 112.78125 80.375 113.050781 81.804688 C 113.265625 82.957031 113.3125 84.113281 113.1875 85.28125 C 113.140625 86.113281 112.886719 86.875 112.425781 87.566406 C 111.988281 88.085938 111.472656 88.503906 110.875 88.820312 L 110.679688 88.9375 C 109.992188 89.371094 109.285156 89.855469 108.53125 90.421875 C 108.234375 90.621094 108.0625 90.898438 108.019531 91.253906 C 108.003906 91.632812 108.128906 91.949219 108.398438 92.214844 L 108.890625 92.753906 C 109.25 93.148438 109.609375 93.539062 109.960938 93.933594 C 111.457031 95.605469 113.4375 98.085938 115.289062 98.488281 C 116.238281 98.695312 117.195312 98.796875 118.164062 98.796875 C 118.957031 98.796875 119.746094 98.730469 120.527344 98.597656 C 122.375 98.277344 123.597656 96.011719 124.867188 94.757812 Z M 110.855469 75.339844 C 112.453125 74.039062 114.269531 73.246094 116.308594 72.972656 C 116.429688 72.953125 116.554688 72.941406 116.675781 72.929688 C 116.679688 72.972656 116.683594 73.011719 116.691406 73.054688 C 116.707031 73.203125 116.722656 73.355469 116.734375 73.5 C 116.734375 73.644531 116.761719 73.785156 116.816406 73.921875 C 116.871094 74.054688 116.953125 74.171875 117.054688 74.273438 C 117.160156 74.378906 117.277344 74.453125 117.414062 74.507812 C 117.546875 74.5625 117.6875 74.585938 117.832031 74.582031 C 118.136719 74.59375 118.394531 74.488281 118.609375 74.273438 C 118.835938 74.03125 118.933594 73.742188 118.910156 73.414062 C 118.910156 73.261719 118.902344 73.105469 118.890625 72.941406 L 119.003906 72.957031 C 119.507812 73.011719 120.003906 73.089844 120.5 73.199219 C 122.101562 73.574219 123.539062 74.289062 124.808594 75.339844 C 123.707031 75.957031 122.535156 76.394531 121.296875 76.648438 C 120.59375 76.78125 119.882812 76.859375 119.132812 76.9375 C 118.773438 76.976562 118.410156 77.015625 118.050781 77.058594 L 117.539062 76.574219 C 117.125 76.082031 116.597656 75.816406 115.953125 75.789062 C 115.550781 75.800781 115.171875 75.898438 114.816406 76.078125 C 114.617188 76.164062 114.429688 76.265625 114.25 76.378906 C 114.007812 76.542969 113.753906 76.5625 113.488281 76.4375 C 112.578125 76.144531 111.699219 75.777344 110.855469 75.332031 Z M 112.675781 91.628906 C 112.203125 91.460938 111.722656 91.308594 111.238281 91.160156 C 111.441406 91.035156 111.640625 90.914062 111.84375 90.796875 C 112.21875 90.578125 112.589844 90.355469 112.941406 90.113281 C 113.5625 89.679688 114.074219 89.140625 114.46875 88.492188 C 114.867188 87.84375 115.117188 87.144531 115.222656 86.394531 C 115.722656 84.042969 115.523438 81.753906 114.617188 79.53125 C 114.488281 79.25 114.335938 78.980469 114.164062 78.730469 C 114.605469 78.671875 115.015625 78.523438 115.390625 78.28125 C 115.488281 78.222656 115.589844 78.167969 115.695312 78.125 C 115.730469 78.109375 115.808594 78.074219 115.875 78.046875 C 115.929688 78.097656 115.988281 78.160156 116.019531 78.191406 C 116.144531 78.324219 116.273438 78.460938 116.402344 78.59375 C 116.863281 79.050781 117.417969 79.277344 118.066406 79.265625 C 119.300781 79.242188 120.515625 79.09375 121.71875 78.820312 C 121.140625 79.707031 120.726562 80.664062 120.472656 81.691406 C 120.21875 82.71875 120.140625 83.761719 120.238281 84.8125 C 120.316406 85.960938 120.652344 87.027344 121.242188 88.015625 C 121.832031 89 122.609375 89.800781 123.582031 90.410156 C 123.921875 90.644531 124.246094 90.898438 124.574219 91.148438 C 122.636719 91.761719 120.65625 92.109375 118.628906 92.183594 C 116.707031 92.210938 114.804688 92.039062 112.917969 91.671875 C 112.796875 91.648438 112.675781 91.621094 112.675781 91.621094 Z M 115.613281 96.304688 C 114.953125 96.136719 113.96875 94.390625 113.375 94.011719 C 116.351562 94.546875 119.328125 94.546875 122.300781 94.011719 C 121.285156 94.660156 120.453125 96.488281 119.058594 96.566406 C 117.894531 96.652344 116.746094 96.5625 115.613281 96.296875 Z M 101.847656 73.226562 C 109.027344 60.210938 115.554688 46.949219 115.601562 46.882812 C 115.65625 46.8125 115.707031 46.734375 115.75 46.65625 L 115.75 46.648438 C 115.757812 46.648438 115.757812 46.640625 115.769531 46.628906 C 115.910156 46.46875 116.058594 46.3125 116.207031 46.160156 C 116.273438 46.105469 116.347656 46.046875 116.414062 45.984375 C 116.421875 45.984375 116.421875 45.984375 116.421875 45.972656 C 116.421875 45.964844 116.441406 45.964844 116.449219 45.957031 C 116.625 45.832031 116.808594 45.71875 117 45.617188 C 117.074219 45.582031 117.160156 45.542969 117.234375 45.496094 L 117.253906 45.496094 C 117.261719 45.488281 117.269531 45.480469 117.28125 45.476562 C 117.484375 45.410156 117.691406 45.347656 117.894531 45.300781 C 117.914062 45.300781 117.988281 45.28125 118.046875 45.273438 C 118.121094 45.257812 118.195312 45.25 118.269531 45.242188 C 118.472656 45.234375 118.679688 45.234375 118.886719 45.242188 C 118.898438 45.25 118.914062 45.253906 118.933594 45.253906 L 118.949219 45.261719 C 119.0625 45.289062 119.175781 45.300781 119.285156 45.328125 C 119.46875 45.371094 119.644531 45.425781 119.816406 45.496094 C 119.863281 45.515625 119.949219 45.550781 119.988281 45.570312 C 120.070312 45.609375 120.152344 45.65625 120.238281 45.703125 C 120.320312 45.75 120.394531 45.796875 120.480469 45.851562 C 120.5 45.863281 120.601562 45.9375 120.640625 45.964844 C 120.78125 46.078125 120.917969 46.199219 121.050781 46.328125 C 121.117188 46.394531 121.179688 46.46875 121.25 46.535156 C 121.261719 46.554688 121.277344 46.574219 121.296875 46.59375 C 121.308594 46.605469 121.320312 46.621094 121.324219 46.640625 C 121.398438 46.742188 121.464844 46.847656 121.523438 46.957031 C 121.53125 46.964844 121.53125 46.984375 121.550781 47.003906 C 124.621094 51.929688 128.539062 60.375 131.683594 65.421875 L 129.015625 66.714844 C 128.964844 66.734375 128.914062 66.761719 128.867188 66.789062 L 128.828125 66.808594 C 128.601562 66.910156 128.441406 67.078125 128.347656 67.308594 C 128.25 67.542969 128.246094 67.773438 128.332031 68.007812 C 128.347656 68.070312 128.367188 68.128906 128.398438 68.1875 L 128.453125 68.269531 C 128.574219 68.496094 128.75 68.652344 128.984375 68.75 L 136.535156 74.171875 C 136.613281 74.222656 136.695312 74.261719 136.785156 74.292969 C 136.871094 74.320312 136.964844 74.335938 137.058594 74.34375 C 137.148438 74.347656 137.242188 74.34375 137.335938 74.324219 C 137.425781 74.304688 137.511719 74.277344 137.597656 74.234375 C 137.679688 74.195312 137.757812 74.144531 137.828125 74.082031 C 137.898438 74.023438 137.960938 73.953125 138.015625 73.875 C 138.070312 73.796875 138.109375 73.714844 138.144531 73.628906 C 138.175781 73.539062 138.195312 73.449219 138.203125 73.355469 L 138.660156 64.066406 C 138.742188 63.804688 138.726562 63.550781 138.613281 63.300781 C 138.609375 63.292969 138.605469 63.289062 138.605469 63.28125 C 138.585938 63.238281 138.566406 63.195312 138.539062 63.160156 L 138.511719 63.101562 C 138.382812 62.878906 138.195312 62.730469 137.945312 62.660156 C 137.699219 62.585938 137.460938 62.609375 137.230469 62.726562 L 137.191406 62.746094 C 137.136719 62.773438 137.09375 62.792969 137.035156 62.820312 L 133.953125 64.320312 C 130.828125 59.300781 126.910156 50.851562 123.859375 45.945312 L 123.847656 45.945312 C 123.589844 45.445312 123.269531 44.992188 122.886719 44.585938 C 122.5 44.175781 122.066406 43.828125 121.585938 43.542969 C 121.101562 43.257812 120.589844 43.042969 120.046875 42.902344 C 119.507812 42.761719 118.957031 42.695312 118.394531 42.710938 C 117.835938 42.722656 117.289062 42.816406 116.753906 42.984375 C 116.21875 43.152344 115.71875 43.390625 115.25 43.699219 C 114.785156 44.007812 114.367188 44.378906 114.003906 44.804688 C 113.640625 45.230469 113.339844 45.699219 113.109375 46.210938 C 109.898438 52.007812 102.855469 66.207031 99.640625 71.992188 C 99.570312 72.140625 99.523438 72.292969 99.511719 72.457031 C 99.496094 72.617188 99.515625 72.777344 99.5625 72.933594 C 99.609375 73.089844 99.6875 73.230469 99.789062 73.359375 C 99.890625 73.484375 100.011719 73.589844 100.15625 73.667969 C 100.296875 73.75 100.449219 73.796875 100.609375 73.820312 C 100.773438 73.839844 100.933594 73.828125 101.089844 73.789062 C 101.246094 73.746094 101.390625 73.675781 101.523438 73.578125 C 101.652344 73.484375 101.761719 73.363281 101.847656 73.226562 Z M 136.480469 65.429688 L 136.179688 71.335938 L 131.394531 67.898438 Z M 114.546875 108.171875 C 99.710938 108.265625 89.722656 108.445312 89.640625 108.4375 L 89.371094 108.417969 C 89.359375 108.417969 89.347656 108.414062 89.34375 108.40625 C 89.128906 108.371094 88.921875 108.324219 88.714844 108.257812 C 88.632812 108.230469 88.550781 108.191406 88.464844 108.164062 L 88.457031 108.164062 C 88.445312 108.15625 88.4375 108.15625 88.417969 108.144531 C 88.230469 108.050781 88.046875 107.949219 87.859375 107.835938 C 87.785156 107.789062 87.710938 107.738281 87.632812 107.6875 C 87.625 107.679688 87.632812 107.679688 87.625 107.679688 L 87.601562 107.652344 C 87.4375 107.515625 87.285156 107.367188 87.144531 107.203125 C 87.132812 107.195312 87.085938 107.136719 87.050781 107.105469 C 87.015625 107.070312 86.929688 106.933594 86.921875 106.917969 C 86.804688 106.734375 86.703125 106.558594 86.605469 106.371094 C 86.59375 106.34375 86.59375 106.34375 86.585938 106.335938 L 86.585938 106.304688 C 86.558594 106.207031 86.511719 106.089844 86.472656 105.988281 C 86.425781 105.800781 86.390625 105.621094 86.359375 105.433594 C 86.351562 105.375 86.34375 105.3125 86.34375 105.25 C 86.34375 105.152344 86.332031 105.058594 86.332031 104.96875 C 86.332031 104.875 86.34375 104.78125 86.34375 104.675781 C 86.34375 104.65625 86.359375 104.535156 86.371094 104.476562 C 86.398438 104.296875 86.4375 104.121094 86.480469 103.941406 C 86.511719 103.859375 86.539062 103.765625 86.566406 103.671875 C 86.574219 103.648438 86.585938 103.628906 86.605469 103.609375 C 86.605469 103.589844 86.613281 103.574219 86.621094 103.5625 C 86.675781 103.449219 86.738281 103.339844 86.804688 103.234375 C 86.8125 103.214844 86.820312 103.207031 86.832031 103.1875 C 89.816406 97.238281 91.496094 93.289062 93.960938 88.71875 L 96.890625 90.46875 C 96.933594 90.507812 96.980469 90.535156 97.03125 90.554688 L 97.066406 90.582031 C 97.28125 90.714844 97.507812 90.753906 97.753906 90.707031 C 98 90.660156 98.195312 90.539062 98.347656 90.339844 C 98.382812 90.292969 98.421875 90.238281 98.457031 90.179688 C 98.46875 90.152344 98.488281 90.125 98.496094 90.09375 C 98.613281 89.871094 98.648438 89.632812 98.597656 89.382812 L 98.949219 80.074219 C 98.964844 79.878906 98.921875 79.699219 98.824219 79.527344 C 98.726562 79.359375 98.59375 79.234375 98.417969 79.148438 C 98.261719 79.035156 98.082031 78.980469 97.890625 78.972656 C 97.699219 78.96875 97.519531 79.015625 97.355469 79.117188 L 89.371094 83.859375 C 89.113281 83.941406 88.910156 84.09375 88.765625 84.316406 C 88.765625 84.328125 88.753906 84.328125 88.753906 84.335938 C 88.730469 84.375 88.707031 84.414062 88.691406 84.457031 L 88.660156 84.515625 C 88.546875 84.742188 88.527344 84.980469 88.601562 85.222656 C 88.675781 85.46875 88.824219 85.652344 89.042969 85.777344 L 89.089844 85.808594 C 89.128906 85.835938 89.183594 85.863281 89.230469 85.890625 L 91.796875 87.425781 C 89.378906 91.910156 87.675781 95.910156 84.777344 101.679688 L 84.777344 101.6875 C 84.472656 102.160156 84.234375 102.664062 84.070312 103.199219 C 83.902344 103.738281 83.816406 104.285156 83.804688 104.847656 C 83.792969 105.410156 83.855469 105.964844 84 106.507812 C 84.144531 107.050781 84.359375 107.5625 84.644531 108.046875 C 84.933594 108.53125 85.28125 108.964844 85.6875 109.347656 C 86.097656 109.734375 86.550781 110.054688 87.050781 110.308594 C 87.546875 110.566406 88.074219 110.75 88.621094 110.859375 C 89.171875 110.964844 89.726562 110.996094 90.285156 110.949219 C 96.882812 110.910156 107.949219 110.734375 114.546875 110.707031 C 114.714844 110.707031 114.875 110.671875 115.03125 110.609375 C 115.183594 110.546875 115.320312 110.453125 115.4375 110.335938 C 115.558594 110.214844 115.648438 110.078125 115.710938 109.925781 C 115.777344 109.769531 115.808594 109.609375 115.808594 109.441406 C 115.808594 109.273438 115.777344 109.109375 115.710938 108.953125 C 115.648438 108.800781 115.558594 108.664062 115.4375 108.542969 C 115.320312 108.425781 115.183594 108.332031 115.03125 108.269531 C 114.875 108.207031 114.714844 108.171875 114.546875 108.171875 Z M 91.714844 84.917969 L 96.777344 81.921875 L 96.554688 87.820312 Z M 153.308594 102.027344 C 150.183594 96.191406 144.542969 85.71875 141.410156 79.882812 C 141.328125 79.742188 141.222656 79.617188 141.09375 79.515625 C 140.964844 79.414062 140.824219 79.339844 140.664062 79.292969 C 140.507812 79.25 140.347656 79.234375 140.183594 79.25 C 140.019531 79.269531 139.867188 79.316406 139.722656 79.394531 C 139.578125 79.472656 139.453125 79.574219 139.347656 79.699219 C 139.242188 79.824219 139.164062 79.96875 139.113281 80.125 C 139.066406 80.28125 139.046875 80.441406 139.058594 80.605469 C 139.070312 80.769531 139.117188 80.925781 139.1875 81.074219 C 146.242188 94.175781 151.375 103.691406 151.40625 103.769531 C 151.40625 103.769531 151.453125 103.882812 151.503906 104.019531 L 151.511719 104.019531 C 151.511719 104.03125 151.515625 104.042969 151.523438 104.050781 C 151.582031 104.253906 151.632812 104.464844 151.671875 104.675781 C 151.691406 104.761719 151.699219 104.855469 151.71875 104.9375 L 151.71875 104.984375 C 151.71875 105.203125 151.726562 105.417969 151.710938 105.632812 C 151.695312 105.722656 151.6875 105.8125 151.679688 105.902344 L 151.679688 105.914062 C 151.671875 105.921875 151.671875 105.921875 151.671875 105.949219 C 151.617188 106.15625 151.558594 106.363281 151.496094 106.570312 C 151.484375 106.585938 151.457031 106.652344 151.4375 106.707031 C 151.417969 106.765625 151.347656 106.886719 151.339844 106.910156 C 151.242188 107.09375 151.128906 107.269531 151.003906 107.433594 C 150.984375 107.453125 150.984375 107.460938 150.984375 107.472656 C 150.984375 107.480469 150.976562 107.472656 150.957031 107.480469 C 150.882812 107.566406 150.808594 107.648438 150.722656 107.734375 C 150.589844 107.863281 150.445312 107.980469 150.292969 108.089844 C 150.257812 108.117188 150.183594 108.164062 150.144531 108.1875 L 149.894531 108.328125 C 149.808594 108.375 149.726562 108.414062 149.640625 108.453125 C 149.621094 108.460938 149.5 108.507812 149.453125 108.527344 C 149.285156 108.585938 149.109375 108.636719 148.933594 108.675781 L 148.652344 108.730469 C 148.613281 108.730469 148.59375 108.738281 148.574219 108.738281 L 148.53125 108.738281 C 148.40625 108.746094 148.28125 108.742188 148.15625 108.730469 L 148.101562 108.730469 C 142.007812 108.664062 137.433594 108.683594 131.34375 108.617188 L 131.277344 104.535156 C 131.28125 104.339844 131.230469 104.160156 131.125 103.996094 C 131.019531 103.832031 130.878906 103.710938 130.699219 103.632812 C 130.535156 103.527344 130.355469 103.476562 130.160156 103.484375 C 129.964844 103.492188 129.789062 103.554688 129.632812 103.671875 L 121.917969 108.84375 C 121.660156 108.929688 121.46875 109.09375 121.339844 109.328125 C 121.335938 109.335938 121.332031 109.34375 121.328125 109.347656 C 121.304688 109.390625 121.28125 109.433594 121.261719 109.480469 C 121.253906 109.496094 121.246094 109.515625 121.246094 109.535156 C 121.140625 109.769531 121.128906 110.007812 121.21875 110.246094 C 121.304688 110.488281 121.464844 110.664062 121.695312 110.777344 L 121.738281 110.804688 C 121.785156 110.835938 121.835938 110.859375 121.890625 110.878906 L 129.785156 115.027344 C 129.832031 115.054688 129.882812 115.082031 129.933594 115.101562 L 129.972656 115.128906 C 130.191406 115.25 130.421875 115.277344 130.667969 115.214844 C 130.910156 115.15625 131.101562 115.019531 131.238281 114.8125 C 131.292969 114.730469 131.339844 114.644531 131.378906 114.558594 C 131.480469 114.328125 131.5 114.089844 131.433594 113.847656 L 131.394531 111.15625 C 137.347656 111.210938 141.789062 111.191406 147.742188 111.25 L 147.75 111.25 C 148.308594 111.300781 148.863281 111.273438 149.414062 111.167969 C 149.960938 111.0625 150.488281 110.882812 150.988281 110.628906 C 151.488281 110.375 151.941406 110.058594 152.351562 109.675781 C 152.761719 109.292969 153.113281 108.863281 153.402344 108.382812 C 153.691406 107.902344 153.910156 107.390625 154.058594 106.847656 C 154.203125 106.304688 154.273438 105.753906 154.265625 105.191406 C 154.257812 104.628906 154.171875 104.078125 154.011719 103.542969 C 153.847656 103.003906 153.617188 102.5 153.3125 102.027344 Z M 124.3125 109.773438 L 129.199219 106.496094 L 129.296875 112.398438 Z M 124.3125 109.773438 " fill-opacity="1" fill-rule="nonzero"/></g><g clip-path="url(#1795fe5366)"><path fill="#231f20" d="M 218.996094 88.195312 C 216.683594 88.195312 214.511719 88.796875 212.628906 89.859375 C 211.1875 86.078125 208.019531 83.148438 204.089844 82.023438 C 205.007812 78.605469 205.625 75.121094 205.945312 71.625 C 205.953125 71.539062 205.957031 71.453125 205.964844 71.367188 C 206.667969 70.742188 207.488281 70.050781 208.128906 69.578125 C 208.25 69.484375 208.441406 69.339844 208.570312 69.238281 C 208.84375 69.035156 209.355469 68.683594 209.628906 68.484375 C 213.648438 65.703125 218.257812 63.75 223.054688 62.714844 C 223.5 62.625 224.097656 62.511719 224.554688 62.425781 C 224.71875 62.402344 224.945312 62.367188 225.183594 62.328125 C 225.625 62.324219 226.253906 62.324219 226.601562 62.335938 L 225.78125 62.484375 C 225.378906 62.566406 224.554688 62.738281 224.152344 62.824219 C 223.667969 62.953125 223.019531 63.113281 222.539062 63.246094 C 218.632812 64.363281 214.878906 66.210938 211.425781 68.695312 C 213.367188 71.796875 216.925781 73.746094 220.839844 73.453125 C 226.449219 73.035156 235.269531 62.1875 235.269531 62.1875 C 235.269531 62.1875 224.925781 52.773438 219.316406 53.191406 C 213.703125 53.613281 209.496094 58.488281 209.914062 64.082031 C 209.953125 64.597656 210.03125 65.101562 210.144531 65.589844 C 208.785156 66.207031 207.457031 66.898438 206.179688 67.664062 C 206.335938 61.820312 205.675781 55.960938 204.195312 50.3125 C 204.441406 50.183594 204.679688 50.042969 204.914062 49.890625 C 208.933594 47.242188 210.035156 41.847656 207.378906 37.839844 C 204.722656 33.835938 192.910156 31.789062 192.910156 31.789062 C 192.910156 31.789062 190.171875 43.425781 192.828125 47.433594 C 194.679688 50.222656 197.867188 51.601562 200.992188 51.289062 C 200.867188 47.65625 200.152344 44.15625 198.867188 40.933594 C 198.703125 40.539062 198.472656 40.019531 198.304688 39.625 C 198.152344 39.308594 197.835938 38.664062 197.683594 38.347656 L 197.355469 37.714844 C 197.578125 37.992188 198.011719 38.550781 198.222656 38.835938 C 198.636719 39.363281 199.085938 40.03125 199.453125 40.582031 C 199.804688 41.148438 200.238281 41.84375 200.546875 42.4375 C 201.046875 43.363281 201.5 44.320312 201.90625 45.304688 C 204.222656 54.046875 204.511719 63.324219 202.761719 72.1875 C 202.722656 72.164062 202.683594 72.140625 202.648438 72.117188 C 202.402344 71.972656 201.863281 71.65625 201.617188 71.515625 C 200.886719 71.101562 200.140625 70.710938 199.382812 70.339844 C 200.265625 64.984375 196.746094 59.84375 191.363281 58.75 C 185.851562 57.628906 174.398438 65.667969 174.398438 65.667969 C 174.398438 65.667969 181.777344 77.535156 187.292969 78.65625 C 191.132812 79.4375 194.910156 77.953125 197.230469 75.117188 C 194.117188 72.222656 190.625 69.917969 186.894531 68.316406 C 186.433594 68.125 185.8125 67.882812 185.347656 67.695312 C 184.960938 67.5625 184.164062 67.285156 183.773438 67.152344 L 182.980469 66.902344 C 183.394531 66.945312 184.214844 67.050781 184.625 67.109375 C 185.402344 67.203125 186.328125 67.386719 187.089844 67.539062 C 187.847656 67.71875 188.78125 67.9375 189.527344 68.171875 C 190.085938 68.339844 190.640625 68.519531 191.195312 68.714844 C 195.160156 70.242188 198.859375 72.433594 202.085938 75.191406 C 201.542969 77.339844 200.878906 79.457031 200.09375 81.527344 C 195.480469 81.671875 191.476562 84.214844 189.292969 87.945312 C 188.050781 87.550781 186.726562 87.335938 185.351562 87.335938 C 178.1875 87.335938 172.382812 93.125 172.382812 100.265625 C 172.382812 100.488281 172.558594 100.664062 172.78125 100.664062 L 231.136719 100.664062 C 231.589844 100.664062 231.945312 100.277344 231.902344 99.824219 C 231.246094 93.292969 225.71875 88.195312 218.996094 88.195312 Z M 218.996094 88.195312 " fill-opacity="1" fill-rule="nonzero"/></g><g clip-path="url(#92a45e9589)"><path fill="#231f20" d="M 51.804688 88.195312 C 49.492188 88.195312 47.320312 88.796875 45.4375 89.859375 C 43.996094 86.078125 40.832031 83.148438 36.898438 82.023438 C 37.816406 78.605469 38.433594 75.121094 38.753906 71.625 C 38.761719 71.539062 38.769531 71.453125 38.777344 71.367188 C 39.480469 70.742188 40.296875 70.050781 40.9375 69.578125 C 41.0625 69.484375 41.25 69.339844 41.378906 69.238281 C 41.652344 69.035156 42.164062 68.683594 42.4375 68.484375 C 46.457031 65.703125 51.070312 63.75 55.863281 62.714844 C 56.308594 62.625 56.910156 62.511719 57.367188 62.425781 C 57.527344 62.402344 57.757812 62.367188 57.996094 62.328125 C 58.4375 62.324219 59.066406 62.324219 59.410156 62.335938 L 58.589844 62.484375 C 58.1875 62.566406 57.363281 62.738281 56.960938 62.824219 C 56.476562 62.953125 55.828125 63.113281 55.347656 63.246094 C 51.445312 64.363281 47.6875 66.210938 44.234375 68.695312 C 46.179688 71.796875 49.738281 73.746094 53.648438 73.453125 C 59.257812 73.035156 68.078125 62.1875 68.078125 62.1875 C 68.078125 62.1875 57.738281 52.773438 52.125 53.191406 C 46.511719 53.613281 42.304688 58.488281 42.726562 64.082031 C 42.765625 64.597656 42.839844 65.101562 42.953125 65.589844 C 41.59375 66.207031 40.269531 66.898438 38.988281 67.664062 C 39.148438 61.820312 38.484375 55.960938 37.007812 50.3125 C 37.25 50.183594 37.488281 50.042969 37.722656 49.890625 C 41.742188 47.242188 42.84375 41.847656 40.1875 37.839844 C 37.53125 33.835938 25.71875 31.789062 25.71875 31.789062 C 25.71875 31.789062 22.980469 43.425781 25.636719 47.433594 C 27.488281 50.222656 30.675781 51.601562 33.800781 51.289062 C 33.675781 47.65625 32.960938 44.15625 31.675781 40.933594 C 31.511719 40.539062 31.28125 40.019531 31.117188 39.625 C 30.960938 39.308594 30.648438 38.664062 30.492188 38.347656 L 30.164062 37.714844 C 30.390625 37.992188 30.824219 38.550781 31.035156 38.835938 C 31.445312 39.363281 31.894531 40.03125 32.265625 40.582031 C 32.617188 41.148438 33.046875 41.84375 33.355469 42.4375 C 33.859375 43.363281 34.3125 44.320312 34.714844 45.304688 C 37.035156 54.046875 37.320312 63.324219 35.570312 72.1875 C 35.53125 72.164062 35.496094 72.140625 35.457031 72.117188 C 35.210938 71.972656 34.671875 71.65625 34.425781 71.515625 C 33.695312 71.101562 32.949219 70.710938 32.191406 70.339844 C 33.074219 64.984375 29.558594 59.84375 24.175781 58.75 C 18.660156 57.628906 7.207031 65.667969 7.207031 65.667969 C 7.207031 65.667969 14.585938 77.535156 20.101562 78.65625 C 23.941406 79.4375 27.722656 77.953125 30.039062 75.117188 C 26.929688 72.222656 23.4375 69.917969 19.703125 68.316406 C 19.246094 68.125 18.621094 67.882812 18.160156 67.695312 C 17.769531 67.5625 16.972656 67.285156 16.585938 67.152344 L 15.789062 66.902344 C 16.203125 66.945312 17.023438 67.050781 17.4375 67.109375 C 18.210938 67.203125 19.140625 67.386719 19.902344 67.539062 C 20.660156 67.71875 21.59375 67.9375 22.335938 68.171875 C 22.898438 68.339844 23.453125 68.519531 24.003906 68.714844 C 27.96875 70.242188 31.667969 72.433594 34.898438 75.191406 C 34.355469 77.339844 33.691406 79.457031 32.902344 81.527344 C 28.289062 81.671875 24.285156 84.214844 22.101562 87.945312 C 20.859375 87.550781 19.535156 87.335938 18.164062 87.335938 C 11 87.335938 5.191406 93.125 5.191406 100.265625 C 5.191406 100.488281 5.371094 100.664062 5.589844 100.664062 L 63.945312 100.664062 C 64.398438 100.664062 64.757812 100.277344 64.710938 99.824219 C 64.058594 93.292969 58.527344 88.195312 51.804688 88.195312 Z M 51.804688 88.195312 " fill-opacity="1" fill-rule="nonzero"/></g></svg>